<?xml version="1.0" encoding="utf-8"?>
<!-- Generator: Adobe Illustrator 28.1.0, SVG Export Plug-In . SVG Version: 6.00 Build 0)  -->
<svg version="1.1" id="Capa_1" xmlns="http://www.w3.org/2000/svg" xmlns:xlink="http://www.w3.org/1999/xlink" x="0px" y="0px"
	 viewBox="0 0 1920 1080" style="enable-background:new 0 0 1920 1080;" xml:space="preserve">
<style type="text/css">
	.st0{fill:#f1f1f1;}
</style>
<g>
	<path class="st0" d="M1000.51,788.74h30.25v4.93h-24.64v13.91h20.52v4.74h-20.52v21.02h-5.61V788.74z"/>
	<path class="st0" d="M1093.58,817.25c0-9.36,5.99-16.97,15.59-16.97c9.67,0,15.53,7.61,15.53,16.97c0,9.36-5.86,16.97-15.53,16.97
		C1099.57,834.22,1093.58,826.61,1093.58,817.25z M1119.53,817.25c0-7.11-3.49-12.79-10.36-12.79c-6.86,0-10.42,5.68-10.42,12.79
		s3.56,12.73,10.42,12.73C1116.03,829.98,1119.53,824.36,1119.53,817.25z"/>
	<path class="st0" d="M1189.46,801.1h4.68v-10.17h5.05v10.17h6.24v4.12h-6.24v20.96c0,2.25,1.18,2.99,3.24,2.99
		c1,0,2.12-0.25,2.68-0.44h0.19v4.37c-1.18,0.25-2.56,0.44-4.05,0.44c-4.12,0-7.11-1.68-7.11-6.24v-22.08h-4.68V801.1z"/>
	<path class="st0" d="M1270.93,817.25c0-9.36,5.99-16.97,15.59-16.97c9.67,0,15.53,7.61,15.53,16.97c0,9.36-5.86,16.97-15.53,16.97
		C1276.91,834.22,1270.93,826.61,1270.93,817.25z M1296.88,817.25c0-7.11-3.49-12.79-10.36-12.79c-6.86,0-10.42,5.68-10.42,12.79
		s3.56,12.73,10.42,12.73C1293.38,829.98,1296.88,824.36,1296.88,817.25z"/>
	<path class="st0" d="M1368.67,835.15h4.68c0.5,3.56,3.87,4.93,8.86,4.93c5.93,0,9.23-2.68,9.23-8.3v-4.55h-0.12
		c-2.37,3.06-4.93,4.99-9.54,4.99c-8.36,0-14.1-6.67-14.1-15.97c0-10.04,6.3-15.91,13.79-15.91c4.68,0,7.67,1.81,9.86,4.87h0.12
		v-4.12h5.05v30.5c0,8.48-5.61,12.47-14.16,12.47C1373.98,844.07,1369.24,840.71,1368.67,835.15z M1391.82,816
		c0-7.05-2.99-11.42-9.86-11.42c-6.05,0-9.11,4.74-9.11,11.73c0,7.05,3.18,11.67,9.17,11.67
		C1389.45,827.98,1391.82,822.8,1391.82,816z"/>
	<path class="st0" d="M1470.79,806.46h0.12c1.93-3.12,5.3-5.74,9.61-5.74c0.94,0,1.43,0.12,2.06,0.38v4.87h-0.19
		c-0.75-0.25-1.25-0.31-2.25-0.31c-4.99,0-9.36,3.74-9.36,9.79v17.9h-5.05V801.1h5.05V806.46z"/>
	<path class="st0" d="M1568.04,828.85h-0.06c-1.93,2.5-5.24,5.12-10.73,5.12c-6.11,0-10.92-2.87-10.92-8.98
		c0-7.61,5.99-9.17,14.04-10.42c4.55-0.69,7.73-1.12,7.73-4.62c0-3.62-2.62-5.68-7.24-5.68c-5.24,0-7.86,2.25-8.05,7.11h-4.87
		c0.19-6.24,4.3-10.92,12.85-10.92c6.86,0,11.91,2.56,11.91,10.23v15.35c0,2.62,0.62,4.05,3.43,3.43h0.19v3.68
		c-0.62,0.25-1.43,0.5-2.75,0.5C1570.29,833.66,1568.54,832.16,1568.04,828.85z M1568.16,821.43v-5.49
		c-1.68,1.06-4.62,1.87-7.36,2.37c-5.05,0.94-9.11,1.81-9.11,6.55c0,4.3,3.37,5.24,6.67,5.24
		C1565.11,830.1,1568.16,825.17,1568.16,821.43z"/>
	<path class="st0" d="M1640.09,801.1h4.43v-5.18c0-5.55,3.18-7.55,8.55-7.55c1.06,0,1.87,0.06,2.56,0.12v4.3
		c-0.87-0.06-1.12-0.06-1.62-0.06c-3.24,0-4.43,0.81-4.43,3.43v4.93h5.99v4.12h-5.99v28.13h-5.05v-28.13h-4.43V801.1z"/>
	<path class="st0" d="M1722.87,801.1h5.05v32.25h-5.05V801.1z M1726.23,788.12h6.18l-4.8,7.92h-4.24L1726.23,788.12z"/>
	<path class="st0" d="M1816.94,828.85h-0.06c-1.93,2.5-5.24,5.12-10.73,5.12c-6.11,0-10.92-2.87-10.92-8.98
		c0-7.61,5.99-9.17,14.04-10.42c4.55-0.69,7.73-1.12,7.73-4.62c0-3.62-2.62-5.68-7.24-5.68c-5.24,0-7.86,2.25-8.05,7.11h-4.87
		c0.19-6.24,4.3-10.92,12.85-10.92c6.86,0,11.91,2.56,11.91,10.23v15.35c0,2.62,0.62,4.05,3.43,3.43h0.19v3.68
		c-0.62,0.25-1.43,0.5-2.75,0.5C1819.18,833.66,1817.43,832.16,1816.94,828.85z M1817.06,821.43v-5.49
		c-1.68,1.06-4.62,1.87-7.36,2.37c-5.05,0.94-9.11,1.81-9.11,6.55c0,4.3,3.37,5.24,6.67,5.24
		C1814,830.1,1817.06,825.17,1817.06,821.43z"/>
</g>
<g>
	<rect x="969.04" y="734.17" class="st0" width="891.93" height="2"/>
</g>
<g>
	<path class="st0" d="M1329.01,530.76c2.01,0,3.63,0.61,4.84,1.82c0.81,1.62,1.21,2.63,1.21,3.03c0,2.42-1.01,4.64-3.03,6.66
		c-2.03,2.02-4.54,3.43-7.57,4.24c-3.03,0.81-5.96,1.21-8.78,1.21c-5.66,0-10.2-1.71-13.62-5.15c-3.43-3.42-6.77-5.15-9.99-5.15
		c-4.04,0.41-7.37,2.02-9.99,4.84c-2.63,2.83-5.55,4.24-8.78,4.24c-2.42,0-3.63-1.41-3.63-4.24c0-2.02,0.2-3.42,0.61-4.24
		c0.81-2.01,2.42-4.03,4.84-6.05c2.42-2.01,5.45-3.23,9.08-3.63c5.24,0,10.59,1.92,16.04,5.75c5.45,3.84,10.39,5.75,14.83,5.75
		c2.82,0,5.04-1.51,6.66-4.54C1323.36,532.27,1325.78,530.76,1329.01,530.76z"/>
</g>
<g>
	<path class="st0" d="M342.03,519.42c6.86-11.1,14.32-22.3,22.4-33.6c2.42-2.42,3.63-5.65,3.63-9.69c0-2.02-0.81-3.63-2.42-4.84
		c-1.62-0.8-2.63-1.21-3.03-1.21c-3.24,0-6.66,2.33-10.29,6.96c-3.63,4.65-6.05,7.97-7.26,9.99c-6.87,10.5-13.32,21.19-19.37,32.09
		s-11.91,22-17.56,33.3c-4.13,7.64-8.21,15.61-12.24,23.89c-0.4-1.39-1.76-2.09-4.1-2.09c-10.5,0-21.6,0-33.3,0
		c-11.71,0-24.02,0.21-36.93,0.61c-0.81,0-1.62,0.1-2.42,0.3c-0.81,0.21-1.62,0.3-2.42,0.3c-2.83,0-4.24-0.8-4.24-2.42
		c0-0.8,0.2-1.61,0.61-2.42c0.4-0.8,1-2.02,1.82-3.63c4.44-9.28,9.08-18.56,13.92-27.85c4.84-9.28,9.89-18.56,15.14-27.85
		l6.66-10.29c2.02-2.82,3.94-5.54,5.75-8.17c1.82-2.62,3.73-5.34,5.75-8.17c2.82-4.03,5.34-7.57,7.57-10.59
		c2.21-3.03,4.54-5.75,6.96-8.17c2.42-2.42,5.04-4.94,7.87-7.57c2.82-2.62,6.05-5.54,9.69-8.78c12.91-10.9,24.61-21.39,35.11-31.48
		c12.91-11.7,22.19-21.99,27.85-30.88c5.65-8.87,8.48-15.53,8.48-19.98c0-4.03-2.02-6.05-6.05-6.05c-4.04,0-9.79,2.42-17.25,7.27
		c-7.47,4.84-15.84,12.52-25.12,23.01c-5.25,6.05-10.29,12.21-15.14,18.46c-4.84,6.26-9.69,12.62-14.53,19.07
		c-3.24,4.45-6.26,8.28-9.08,11.5c-2.83,3.24-6.87,7.07-12.11,11.5l-29.67,25.43c-16.95,14.53-34.01,29.36-51.16,44.5
		c-17.16,15.14-33.81,30.38-49.95,45.71c-3.63,3.24-6.87,5.86-9.69,7.87c-2.83,2.02-5.55,3.54-8.17,4.54
		c-2.63,1.01-5.55,1.82-8.78,2.42c-3.23,0.61-7.26,1.31-12.11,2.12c-8.08,1.21-16.04,2.42-23.91,3.63s-15.24,2.83-22.1,4.84
		c-6.46,1.62-11.2,3.74-14.23,6.36c-3.03,2.63-4.54,4.95-4.54,6.96c0,2.83,2.42,4.24,7.27,4.24c2.83,0,6.05-0.61,9.69-1.82
		c6.86-2.02,13.62-3.83,20.28-5.45c6.66-1.61,13.41-3.23,20.28-4.84c4.84-1.21,8.27-1.82,10.29-1.82c1.21,0,1.82,0.41,1.82,1.21
		c0,1.21-2.63,4.45-7.87,9.69c-7.67,7.67-14.83,15.24-21.49,22.7c-6.66,7.47-12.82,14.63-18.47,21.49
		c-6.46,7.67-9.69,14.13-9.69,19.37c0,4.04,1.82,6.05,5.45,6.05c4.03,0,7.66-2.21,10.9-6.66c7.66-10.08,16.24-20.38,25.73-30.88
		c9.48-10.49,19.87-21.19,31.18-32.09c4.44-4.44,8.07-7.87,10.9-10.29c2.82-2.42,5.45-4.24,7.87-5.45c2.42-1.21,5.04-2.01,7.87-2.42
		c2.82-0.4,6.45-1,10.9-1.82l31.48-3.63h3.63c2.82,0,4.24,0.6,4.24,1.82c0,0.81-0.21,1.82-0.61,3.03c-0.41,1.21-1.21,2.42-2.42,3.63
		c-14.13,31.08-27.04,62.66-38.75,94.75c-11.71,32.09-21.79,64.48-30.27,97.17c-0.81,2.42-1.62,4.03-2.42,4.84
		c-1.62,3.23-2.42,6.25-2.42,9.08c0,4.03,1.11,6.96,3.33,8.78c2.21,1.82,4.74,2.72,7.57,2.72c3.23,0,6.15-1.01,8.78-3.03
		c2.62-2.02,3.94-4.64,3.94-7.87c0-1.62-0.51-2.42-1.51-2.42c-1.01,0-1.92-1.01-2.72-3.03c0-1.21,0.2-2.22,0.6-3.03
		c8.07-33.51,17.35-66.6,27.85-99.29c10.49-32.69,22.8-64.78,36.93-96.26c2.42-5.65,4.64-9.18,6.66-10.6
		c2.01-1.41,5.85-2.32,11.5-2.72c24.22-1.21,48.03-1.82,71.44-1.82c1.11,0,1.99-0.13,2.66-0.38c-3.35,6.97-6.66,14.15-9.94,21.57
		c-3.23,7.27-6.05,13.92-8.48,19.98c-2.42,6.05-4.44,11.91-6.05,17.56c-0.8,1.62-1.21,3.13-1.21,4.54c0,1.42,0,2.72,0,3.93
		c0,6.46,2.02,9.69,6.05,9.69c1.62,0,3.13-0.91,4.54-2.72c1.42-1.82,2.33-4.74,2.72-8.78c0.81-6.45,2.42-13.32,4.84-20.58
		c2.42-7.26,5.04-13.72,7.87-19.37c4.03-8.87,8.27-17.56,12.71-26.03c4.44-8.48,9.08-16.95,13.92-25.43
		C328.31,541.92,335.17,530.52,342.03,519.42z M204.01,566.94c-2.42,4.45-4.54,7.07-6.36,7.87c-1.82,0.81-4.95,1.21-9.38,1.21
		l-32.09,1.82c-3.63,0-5.45-0.4-5.45-1.21c0-0.4,2.82-3.42,8.48-9.08l3.63-3.03c11.29-10.08,22.6-20.28,33.9-30.57
		c11.29-10.29,22.8-20.28,34.51-29.97c1.61-1.21,3.63-2.72,6.05-4.54c2.42-1.82,3.63-2.52,3.63-2.12c0,0.41-1.62,3.43-4.84,9.08
		c-5.66,10.09-11.2,20.08-16.65,29.97C214,546.26,208.85,556.45,204.01,566.94z"/>
	<path class="st0" d="M643.22,585.71c3.83-2.82,7.96-5.24,12.41-7.26c-1.21,3.24-1.92,5.86-2.12,7.87c-0.21,2.02-0.3,3.63-0.3,4.84
		c0,4.84,1.61,8.48,4.84,10.9c3.23,2.42,7.27,3.63,12.11,3.63c4.44,0,9.69-0.8,15.74-2.42c6.05-1.61,12.31-3.73,18.77-6.36
		c6.45-2.62,13.02-5.35,19.68-8.17c6.66-2.82,13.02-5.45,19.07-7.87c1.61-0.4,2.42-1.41,2.42-3.03c0-1.61-0.81-2.42-2.42-2.42
		c-0.81,0-1.62,0.21-2.42,0.61c-4.04,2.02-8.78,4.14-14.23,6.36c-5.45,2.22-11.2,4.45-17.25,6.66c-6.05,2.22-12.21,4.24-18.47,6.05
		c-6.26,1.82-12.21,3.13-17.86,3.93c-5.66,0-8.48-2.62-8.48-7.87c0-4.03,1.21-8.87,3.63-14.53c1.21-2.82,1.82-5.45,1.82-7.87
		c0-4.84-2.22-7.27-6.66-7.27c-2.02,0-4.45,0.61-7.27,1.82c-2.42,1.21-5.75,3.33-9.99,6.36s-8.28,6.05-12.11,9.08
		c-3.84,3.03-7.17,5.66-9.99,7.87c-2.83,2.22-4.24,2.93-4.24,2.12c0-0.4,1.21-2.82,3.63-7.26l2.42-3.63
		c0.8-1.61,1.21-3.03,1.21-4.24c0-4.44-2.42-6.66-7.26-6.66c-1.62,0-3.84,1.01-6.66,3.03c-2.34,2.05-4.89,5.22-7.65,9.48l-2.64,1.42
		c-8.88,4.84-19.48,10.4-31.78,16.65c-12.32,6.26-23.11,10.8-32.39,13.62c-1.62,0.41-3.24,0.81-4.84,1.21
		c-1.62,0.41-3.24,0.61-4.84,0.61c-4.04,0-6.05-1.61-6.05-4.84c0-4.03,1.21-7.97,3.63-11.81c2.42-3.83,4.64-7.36,6.66-10.6
		c0.8-1.61,1.21-3.03,1.21-4.24s-0.41-2.21-1.21-3.03c-0.81-0.8-1.21-1.41-1.21-1.82c0-0.4,0.4-1.41,1.21-3.03
		c1.21-1.21,1.82-3.63,1.82-7.26c-0.81-3.63-3.03-5.95-6.66-6.96c-3.63-1-7.07-1.51-10.29-1.51h-3.63
		c-4.04,0.41-8.17,1.62-12.41,3.63c-4.24,2.02-8.17,4.45-11.81,7.27c-3.63,2.83-6.66,6.16-9.08,9.99c-2.02,3.2-3.33,6.47-3.94,9.8
		c-12.86,19.95-26.57,40.49-41.16,61.64c-17.96,26.03-36.63,50.16-56,72.35c-2.42,2.83-5.66,6.46-9.69,10.9
		c-4.04,4.45-8.38,8.67-13.02,12.71c-4.64,4.03-9.38,7.46-14.23,10.29c-4.84,2.82-9.08,4.24-12.71,4.24c-4.04,0-6.56-1.72-7.57-5.15
		c-1.01-3.43-1.51-6.76-1.51-9.99c0-5.66,0.61-11.6,1.82-17.86c1.21-6.25,2.62-12.2,4.24-17.86c1.21-3.63,2.42-7.66,3.63-12.11
		c1.21-4.44,3.12-10.19,5.75-17.25c2.62-7.06,6.05-16.14,10.29-27.24c4.24-11.1,9.78-25.12,16.65-42.08
		c6.45-13.72,11.7-24.42,15.74-32.09c4.03-7.66,7.16-13.62,9.38-17.86c2.21-4.24,4.03-7.27,5.45-9.08c1.41-1.82,2.92-3.73,4.54-5.75
		c12.51-14.12,24.22-28.85,35.11-44.2c6.45-8.87,12.61-17.76,18.47-26.64c5.85-8.87,11.4-17.95,16.65-27.24
		c0.8-2.42,1.82-4.74,3.03-6.96c1.21-2.21,2.21-4.33,3.03-6.36c1.61-3.63,2.42-6.86,2.42-9.69c0-2.42-1.01-3.63-3.03-3.63
		c-2.02,0-4.14,0.81-6.36,2.42c-2.22,1.62-4.34,3.43-6.36,5.45c-16.55,18.16-31.59,37.03-45.1,56.61
		c-13.53,19.58-26.14,40.06-37.84,61.45c-0.81,1.21-2.63,3.33-5.45,6.36c-2.83,3.03-4.24,5.35-4.24,6.96c0,1.21,0.4,2.02,1.21,2.42
		l-4.84,9.69c-3.24,5.66-6.05,11.41-8.48,17.25c-2.42,5.86-4.84,11.61-7.27,17.25c-4.04,8.88-7.78,17.86-11.2,26.94
		c-3.43,9.08-6.76,18.27-9.99,27.55c-4.84,14.13-9.08,28.06-12.71,41.77c-1.21,5.25-2.22,10.59-3.03,16.04
		c-0.81,5.45-1.21,10.8-1.21,16.04v3.63c0,6.86,1.21,13.41,3.63,19.68c2.42,6.25,7.66,9.38,15.74,9.38
		c4.84-0.41,9.78-2.12,14.83-5.15c5.04-3.03,9.99-6.66,14.83-10.9c4.84-4.24,9.38-8.68,13.62-13.32c4.24-4.63,7.77-8.57,10.6-11.81
		c19.37-22.19,37.93-46.51,55.7-72.95c13-19.35,25.34-38.1,37.04-56.27c0.94,2.91,2.41,5.52,4.42,7.83
		c2.62,3.03,6.36,4.54,11.2,4.54c3.23,0,6.05-1.21,8.48-3.63c2.42-2.42,4.84-3.63,7.26-3.63c0.8,0,1.21,1.01,1.21,3.03
		c0,5.66,1.21,9.38,3.63,11.2c2.42,1.82,5.45,2.72,9.08,2.72c2.42,0,4.84-0.2,7.27-0.61c2.42-0.4,4.63-1,6.66-1.82
		c5.65-1.61,12.11-4.03,19.37-7.27c7.27-3.23,14.43-6.55,21.49-9.99c7.06-3.42,13.72-6.86,19.98-10.29
		c0.76-0.42,1.51-0.83,2.25-1.23c-2.66,5.17-4.34,9.52-4.98,13.04v2.42c0,4.04,1.01,7.26,3.03,9.69c2.02,2.42,4.03,3.63,6.05,3.63
		c2.42,0,4.24-1,5.45-3.03c3.23-4.44,6.75-8.27,10.6-11.5c3.83-3.23,7.77-6.45,11.81-9.69
		C635.65,591.16,639.38,588.54,643.22,585.71z M520.71,574.12c0.01-0.03-1.02,0.9-3.11,2.81c-2.42,2.22-5.45,4.84-9.08,7.87
		c-3.63,3.03-7.17,5.75-10.59,8.17c-3.43,2.42-5.75,3.63-6.96,3.63c0-4.44,1.71-8.48,5.15-12.11c3.42-3.63,6.75-6.45,9.99-8.48
		c4.03-2.82,8.27-4.44,12.71-4.84c2.01,0,3.03,0.41,3.03,1.21C521.84,572.78,521.45,573.36,520.71,574.12z"/>
	<path class="st0" d="M1114.83,524.56c-9.08-4.44-22.1-6.86-39.05-7.27c-2.02,0-4.04-0.09-6.05-0.3c-2.03-0.2-4.04-0.3-6.05-0.3
		c-9.29,0-18.37,0.51-27.24,1.51c-8.88,1.01-17.77,1.92-26.64,2.72c-12.51,1.62-24.93,3.54-37.23,5.75
		c-12.32,2.22-24.73,4.54-37.23,6.96c-7.67,1.62-15.34,3.13-23.01,4.54c-7.67,1.42-15.34,3.13-23.01,5.15
		c-11.3,2.83-19.17,4.24-23.61,4.24c-1.62,0-2.42-0.2-2.42-0.61c0-1.21,6.66-5.85,19.98-13.92l57.51-34.51
		c25.82-15.33,50.85-32.29,75.07-50.85c9.28-6.86,18.66-14.43,28.15-22.7c9.48-8.27,17.86-17.05,25.12-26.34
		c2.42-3.23,5.04-7.26,7.87-12.11c2.82-4.84,4.24-9.69,4.24-14.53c0-2.42-0.61-4.84-1.82-7.27c-2.83-5.24-7.97-8.48-15.44-9.69
		c-7.47-1.21-13.83-1.82-19.07-1.82c-10.5,0-21.19,1.12-32.09,3.33c-10.9,2.22-21.19,4.95-30.88,8.17
		c-12.92,3.63-25.43,7.78-37.54,12.41c-12.11,4.64-24.22,9.59-36.33,14.83l-23.01,10.29c0-0.8,0.09-1.31,0.3-1.51
		c0.2-0.2,0.3-0.7,0.3-1.51c0-3.63-1.21-5.45-3.63-5.45c-2.83,0-6.26,2.63-10.29,7.87c-4.04,4.45-7.37,7.78-9.99,9.99
		c-2.63,2.22-6.96,4.95-13.02,8.17l-19.98,9.69c-9.69,4.45-19.28,9.38-28.76,14.83c-9.49,5.45-18.87,11-28.15,16.65
		c-3.24,2.02-6.57,4.34-9.99,6.96c-3.43,2.63-6.36,5.55-8.78,8.78c-0.81,0.81-1.82,2.22-3.03,4.24c-1.21,2.02-1.82,3.84-1.82,5.45
		c0,0.81,0.2,1.42,0.61,1.82c0.4,1.21,1.82,1.82,4.24,1.82c3.63,0,7.96-1.41,13.02-4.24c5.04-2.82,8.37-4.64,9.99-5.45
		c8.48-5.24,16.35-11.2,23.61-17.86c7.26-6.66,15.33-12.41,24.22-17.25c2.42-1.21,4.84-2.52,7.27-3.94
		c2.42-1.41,5.04-2.72,7.87-3.94c5.65-2.82,9.48-4.24,11.5-4.24c0.8,0,1.21,0.41,1.21,1.21c0,1.62-1.82,5.66-5.45,12.11
		c-14.53,29.47-28.56,59.03-42.08,88.69c-13.53,29.67-26.74,59.63-39.65,89.9c-2.02,5.25-3.54,9.99-4.54,14.23
		c-1.01,4.24-1.51,7.78-1.51,10.59c0,4.04,0.8,6.05,2.42,6.05c3.23,0,8.07-7.46,14.53-22.4c3.23-8.07,6.56-16.04,9.99-23.91
		c3.42-7.87,6.96-15.83,10.59-23.91c1.61-4.03,3.03-6.96,4.24-8.78c1.21-1.82,2.62-3.12,4.24-3.94c1.61-0.8,3.33-1.21,5.15-1.21
		s4.13,0,6.96,0c5.65-0.8,11.4-1.82,17.25-3.03c5.85-1.21,9.58-2.01,11.2-2.42c15.74-4.03,31.38-7.87,46.92-11.5
		c15.53-3.63,31.18-7.06,46.92-10.29c12.5-2.42,24.92-4.63,37.23-6.66c12.31-2.02,24.72-3.83,37.23-5.45
		c10.9-1.61,21.89-2.92,33-3.94c11.1-1,22.29-1.51,33.6-1.51c2.02,0,5.04,0.1,9.08,0.3c4.03,0.21,8.07,0.71,12.11,1.51
		c4.03,0.81,7.77,1.92,11.2,3.33c3.42,1.42,5.54,3.54,6.36,6.36c0.4,0.81,0.61,1.82,0.61,3.03c0,2.83-0.91,5.86-2.72,9.08
		c-1.82,3.24-4.04,6.46-6.66,9.69c-2.63,3.23-5.35,6.16-8.17,8.78c-2.83,2.63-5.05,4.75-6.66,6.36c-4.45,4.45-9.19,8.68-14.23,12.71
		c-5.05,4.04-10.2,8.08-15.44,12.11c-10.9,8.48-22.61,17.16-35.12,26.03c-11.71,8.08-23.41,15.95-35.11,23.61
		c-11.71,7.67-23.41,15.34-35.11,23.01c-5.66,3.63-11.3,7.26-16.95,10.9c-5.66,3.63-11.3,7.07-16.95,10.29
		c-21.79,12.51-43.69,24.82-65.69,36.93c-22,12.11-44.3,23.81-66.9,35.11c-13.73,6.86-27.65,13.41-41.77,19.68
		c-14.13,6.25-28.26,12.2-42.38,17.86c-8.48,3.23-18.56,6.66-30.27,10.29c-11.7,3.63-22.8,5.45-33.3,5.45
		c-3.23,0-5.85-0.41-7.87-1.21c-2.01-0.81-3.03-2.63-3.03-5.45c0-1.62,0.21-3.03,0.61-4.24c1.62-5.66,5.05-11.41,10.29-17.25
		c5.25-5.86,9.89-11,13.92-15.44c4.84-5.66,10.29-10.4,16.35-14.23c6.05-3.84,11.91-7.97,17.56-12.41c2.82-2.02,5.54-4.34,8.17-6.96
		c2.62-2.63,4.94-5.54,6.96-8.78c0.4-0.8,0.8-1.91,1.21-3.33c0.4-1.41,0.6-2.72,0.6-3.94c0-0.8-0.41-2.01-1.21-3.63
		c-0.81-0.8-2.02-1.21-3.63-1.21c-2.42,0-5.05,0.81-7.87,2.42c-2.82,1.62-4.84,2.83-6.05,3.63c-5.24,3.63-11.1,8.68-17.56,15.14
		c-6.45,6.45-12.81,13.41-19.07,20.89c-6.25,7.46-11.9,14.93-16.95,22.4c-5.04,7.46-8.57,14.23-10.59,20.28
		c-0.8,2.01-1.21,4.63-1.21,7.87c0,6.05,2.63,10.08,7.87,12.11c5.25,2.02,11.11,3.03,17.56,3.03c11.3-0.41,22.81-2.22,34.51-5.45
		c11.7-3.23,22.8-6.46,33.3-9.69c14.12-4.84,28.05-10.2,41.77-16.04c13.72-5.86,27.24-12.01,40.56-18.47
		c12.91-5.66,25.52-11.61,37.84-17.86c12.31-6.26,24.72-12.82,37.23-19.68c9.69-5.65,19.37-11.1,29.06-16.35
		c9.69-5.24,19.37-10.69,29.06-16.35c18.56-10.9,36.83-21.99,54.79-33.3c17.96-11.29,35.62-23.4,52.97-36.33
		c6.05-4.44,12.11-8.98,18.16-13.62c6.05-4.63,11.9-9.38,17.56-14.23c4.84-4.44,9.69-8.98,14.53-13.62
		c4.84-4.63,9.48-9.38,13.92-14.23c14.12-15.74,21.19-29.06,21.19-39.96C1128.45,535.46,1123.91,529.01,1114.83,524.56z
		 M833.61,540.3l-3.63,1.82c-3.63,2.02-6.66,3.74-9.08,5.15c-2.42,1.42-4.24,2.12-5.45,2.12c-0.81,0-1.21-0.61-1.21-1.82
		c0-2.82,1.61-7.46,4.84-13.92l19.37-40.56c4.03-8.48,8.48-16.85,13.32-25.12c4.84-8.27,9.69-16.65,14.53-25.12
		c3.63-6.05,6.75-10.99,9.38-14.83c2.62-3.83,5.24-6.96,7.87-9.38c2.62-2.42,5.65-4.54,9.08-6.36c3.42-1.82,7.77-3.73,13.02-5.75
		l30.88-12.71c10.49-4.03,20.78-7.87,30.88-11.5c10.08-3.63,20.38-7.06,30.88-10.29c8.07-2.01,16.44-4.03,25.12-6.05
		c8.67-2.01,17.04-3.23,25.12-3.63h4.24c13.32,0,19.98,2.83,19.98,8.48c0,4.45-3.84,10.5-11.5,18.16
		c-8.08,8.48-16.95,16.55-26.64,24.22c-9.69,7.67-19.37,14.94-29.06,21.79c-11.71,8.48-23.72,16.65-36.02,24.52
		c-12.32,7.87-24.73,15.65-37.23,23.31c-16.55,10.09-33,19.78-49.34,29.06C866.61,521.14,850.16,530.62,833.61,540.3z"/>
	<path class="st0" d="M1685.41,493.69c1.21-2.02,2.52-3.73,3.94-5.15c1.41-1.41,2.92-3.12,4.54-5.15c1.21-1.61,2.52-3.42,3.94-5.45
		c1.41-2.01,2.52-4.03,3.33-6.05c0-0.4,0.09-1,0.3-1.82c0.2-0.8,0.3-1.61,0.3-2.42c0-0.4-0.41-1-1.21-1.82
		c-0.41-0.4-0.61-0.8-0.61-1.21c-2.02,0-4.75,1.62-8.17,4.84c-3.43,3.24-5.55,5.45-6.36,6.66c-4.45,5.25-8.68,10.5-12.71,15.74
		c-4.04,5.25-8.08,10.7-12.11,16.35c-4.45,6.05-8.28,11-11.5,14.83c-3.24,3.84-7.47,8.58-12.71,14.23
		c-15.34,15.74-31.58,31.18-48.74,46.31c-17.16,15.13-36.02,26.94-56.61,35.42c-2.42,0.81-5.25,1.72-8.48,2.72
		c-3.24,1.01-6.26,1.51-9.08,1.51c-4.45,0-6.66-1.61-6.66-4.84c0-1.61,0.61-3.63,1.82-6.05l4.84-8.48
		c6.05-2.42,12.51-6.05,19.37-10.9c6.86-4.84,11.9-10.08,15.13-15.74c1.61-3.23,2.42-5.85,2.42-7.87c0-6.45-3.84-9.69-11.5-9.69
		c-5.66,0-11.3,2.72-16.95,8.17c-4.44,4.27-8.11,8.11-11.05,11.51c-3.19,1.75-6.67,3.66-10.44,5.74
		c-5.86,3.24-12.01,6.57-18.47,9.99c-6.46,3.43-12.92,6.56-19.37,9.38c-6.46,2.83-12.51,5.05-18.16,6.66
		c-1.62,0.41-3.33,0.81-5.15,1.21c-1.82,0.41-3.54,0.61-5.15,0.61c-4.04,0-6.05-1.61-6.05-4.84c0-3.63,0.91-7.27,2.72-10.9
		c1.82-3.63,3.73-7.06,5.75-10.29c2.02-2.01,3.03-4.44,3.03-7.26c0-3.63-2.22-5.45-6.66-5.45c-1.62,0-3.63,0.61-6.05,1.82
		c-3.24,2.02-7.47,4.84-12.71,8.48c-5.25,3.63-9.69,5.45-13.32,5.45c-0.81,0-1.21-0.4-1.21-1.21c0-2.82,1.51-5.04,4.54-6.66
		c3.03-1.61,4.54-4.03,4.54-7.27c0-2.01-0.71-3.83-2.12-5.45c-1.42-1.61-3.13-2.42-5.15-2.42c-4.04,0-7.78,2.93-11.2,8.78
		c-0.73,1.25-1.37,2.45-1.94,3.63c-2.23,0.99-4.6,2-7.13,3.03c-5.45,2.22-11.2,4.45-17.25,6.66c-6.05,2.22-12.21,4.24-18.46,6.05
		c-6.26,1.82-12.21,3.13-17.86,3.93c-5.66,0-8.48-2.62-8.48-7.87c0-4.03,1.21-8.87,3.63-14.53c1.21-2.82,1.82-5.45,1.82-7.87
		c0-4.84-2.22-7.27-6.66-7.27c-2.02,0-4.45,0.61-7.26,1.82c-2.42,1.21-5.75,3.33-9.99,6.36s-8.28,6.05-12.11,9.08
		c-3.84,3.03-7.17,5.66-9.99,7.87c-2.83,2.22-4.24,2.93-4.24,2.12c0-0.4,1.21-2.82,3.63-7.26l2.42-3.63
		c0.8-1.61,1.21-3.03,1.21-4.24c0-4.44-2.42-6.66-7.27-6.66c-1.62,0-3.84,1.01-6.66,3.03c-2.34,2.05-4.89,5.22-7.65,9.48l-2.64,1.42
		c-8.88,4.84-19.48,10.4-31.78,16.65c-12.32,6.26-23.11,10.8-32.39,13.62c-1.62,0.41-3.24,0.81-4.84,1.21
		c-1.62,0.41-3.24,0.61-4.84,0.61c-4.04,0-6.05-1.61-6.05-4.84c0-4.03,1.21-7.97,3.63-11.81c2.42-3.83,4.63-7.36,6.66-10.6
		c0.8-1.61,1.21-3.03,1.21-4.24s-0.41-2.21-1.21-3.03c-0.81-0.8-1.21-1.41-1.21-1.82c0-0.4,0.4-1.41,1.21-3.03
		c1.21-1.21,1.82-3.63,1.82-7.26c-0.81-3.63-3.03-5.95-6.66-6.96c-3.63-1-7.07-1.51-10.29-1.51h-3.63
		c-4.04,0.41-8.17,1.62-12.41,3.63c-4.24,2.02-8.17,4.45-11.81,7.27c-3.63,2.83-6.66,6.16-9.08,9.99
		c-2.42,3.84-3.84,7.78-4.24,11.81v4.84c0.8,4.04,2.52,7.57,5.15,10.59c2.62,3.03,6.36,4.54,11.2,4.54c3.23,0,6.05-1.21,8.48-3.63
		s4.84-3.63,7.26-3.63c0.8,0,1.21,1.01,1.21,3.03c0,5.66,1.21,9.38,3.63,11.2s5.45,2.72,9.08,2.72c2.42,0,4.84-0.2,7.26-0.61
		c2.42-0.4,4.64-1,6.66-1.82c5.65-1.61,12.11-4.03,19.37-7.27c7.26-3.23,14.43-6.55,21.49-9.99c7.06-3.42,13.72-6.86,19.98-10.29
		c0.76-0.42,1.51-0.83,2.25-1.23c-2.66,5.17-4.33,9.52-4.98,13.04v2.42c0,4.04,1.01,7.26,3.03,9.69c2.02,2.42,4.03,3.63,6.05,3.63
		c2.42,0,4.24-1,5.45-3.03c3.23-4.44,6.75-8.27,10.59-11.5c3.83-3.23,7.77-6.45,11.81-9.69c3.63-2.42,7.36-5.04,11.2-7.87
		c3.83-2.82,7.96-5.24,12.41-7.26c-1.21,3.24-1.92,5.86-2.12,7.87c-0.21,2.02-0.3,3.63-0.3,4.84c0,4.84,1.61,8.48,4.84,10.9
		c3.23,2.42,7.26,3.63,12.11,3.63c4.44,0,9.69-0.8,15.74-2.42c6.05-1.61,12.31-3.73,18.77-6.36c6.45-2.62,13.02-5.35,19.68-8.17
		c2.41-1.02,4.77-2.01,7.11-2.98c-0.5,1.9-0.76,3.71-0.76,5.4c0,2.83,0.8,5.35,2.42,7.57c1.61,2.22,4.03,3.33,7.26,3.33
		c3.23,0,6.36-1,9.38-3.03c3.03-2.01,6.15-3.03,9.38-3.03c1.21,0,1.91,1.21,2.12,3.63c0.2,2.42,0.61,5.15,1.21,8.17
		c0.61,3.03,1.82,5.75,3.63,8.17s4.94,3.63,9.38,3.63c2.42,0,5.24-0.4,8.48-1.21c5.65-1.21,12.11-3.33,19.37-6.36
		c7.26-3.03,14.53-6.36,21.79-9.99c7.26-3.63,14.23-7.26,20.89-10.9c1.02-0.56,2.01-1.1,2.99-1.64c-1.5,2.43-3,5.09-4.51,8
		c-3.23,6.26-4.84,12.21-4.84,17.86c0,5.66,1.62,9.69,4.84,12.11c3.23,2.42,6.87,3.63,10.9,3.63c3.23,0,6.45-0.5,9.69-1.51
		c3.23-1,6.25-1.91,9.08-2.72c18.97-6.86,36.52-16.95,52.67-30.27c16.14-13.32,31.48-26.64,46.01-39.96
		c2.42-2.42,3.63-3.23,3.63-2.42c0,0.41-1.42,3.43-4.24,9.08c-5.66,10.5-11.11,21.1-16.35,31.79c-5.25,10.7-10.29,21.49-15.14,32.39
		c-0.81,2.02-1.62,4.45-2.42,7.26c-0.81,2.83-1.21,6.05-1.21,9.69c0,6.05,1.82,9.08,5.45,9.08c2.42,0,4.44-2.21,6.05-6.66
		c5.65-14.12,11.7-28.05,18.16-41.77c6.45-13.72,13.11-27.44,19.98-41.17c4.03-8.07,8.27-15.94,12.71-23.61
		c4.44-7.66,8.87-15.53,13.32-23.61c2.82-4.44,5.75-8.48,8.78-12.11C1679.05,500.95,1682.17,497.32,1685.41,493.69z M1175.14,574.12
		c0.01-0.03-1.02,0.9-3.11,2.81c-2.42,2.22-5.45,4.84-9.08,7.87c-3.63,3.03-7.17,5.75-10.59,8.17c-3.43,2.42-5.75,3.63-6.96,3.63
		c0-4.44,1.71-8.48,5.15-12.11c3.42-3.63,6.75-6.45,9.99-8.48c4.03-2.82,8.27-4.44,12.71-4.84c2.02,0,3.03,0.41,3.03,1.21
		C1176.27,572.78,1175.88,573.36,1175.14,574.12z M1535.15,576.14l-7.62,6.68c-0.03,0.02-0.06,0.05-0.09,0.07
		c-0.91,0.56-1.83,1.12-2.76,1.66c-0.93,0.57-1.63,0.84-2.1,0.84l3.47-4.18c0.02-0.03,0.05-0.05,0.07-0.07
		c3.71-3.36,6.5-5.59,8.37-6.72l0.66-0.4c0.65-0.39,1.26,0.62,0.74,1.24l-0.67,0.8C1535.21,576.09,1535.18,576.12,1535.15,576.14z"
		/>
	<path class="st0" d="M1858.55,575.42c-0.81,0-2.02,0.41-3.63,1.21c-14.13,5.66-26.64,10.5-37.54,14.53
		c-10.9,4.04-20.58,7.47-29.06,10.29c-0.81,0.41-1.82,0.61-3.03,0.61c-2.02,0-3.63-1.41-4.84-4.24c-1.21-3.23-2.42-6.25-3.63-9.08
		c-1.21-2.82-1.82-5.85-1.82-9.08l6.66-4.84c5.24-4.84,7.87-8.67,7.87-11.5c0-3.23-2.22-4.84-6.66-4.84
		c-5.25,0-10.29,2.22-15.13,6.66c-3.24,2.98-5.37,6.22-6.44,9.74l-46.83,2.37c-2.02,0-3.33-0.2-3.94-0.61
		c-0.61-0.4-1.51-1.21-2.72-2.42c-1.62-1.61-3.24-2.42-4.84-2.42c-1.21,0-2.22,0.21-3.03,0.61c-2.42-0.8-4.24-1.21-5.45-1.21
		c-2.02,0-3.84,0.41-5.45,1.21c-6.05,3.23-10.29,8.08-12.71,14.53c-1.21,3.24-1.82,6.66-1.82,10.29c0,6.46,1.82,11.5,5.45,15.13
		c2.82,2.83,6.66,4.24,11.5,4.24c5.24,0,9.58-3.23,13.02-9.69c3.42-6.45,5.54-13.11,6.36-19.98c0-2.82,1.61-4.24,4.84-4.24
		l44.8-2.36c0.01,4.42,0.81,8.43,2.42,12.04c0.8,2.02,1.71,4.14,2.72,6.36c1,2.22,1.51,4.54,1.51,6.96c0,2.02-1.62,3.63-4.84,4.84
		c-4.45,1.62-9.58,4.04-15.44,7.27c-5.85,3.24-8.78,6.66-8.78,10.29c0,2.42,0.81,4.54,2.42,6.36c1.62,1.82,3.84,2.72,6.66,2.72
		c3.23,0,6.96-0.61,11.2-1.82c4.24-1.21,8.17-2.82,11.8-4.84c3.63-2.02,6.66-4.44,9.08-7.27c2.42-2.82,3.63-5.85,3.63-9.08
		c0-2.01,0.8-3.63,2.42-4.84c1.61-1.21,3.23-2.21,4.84-3.03c8.48-2.82,18.26-6.25,29.36-10.29c11.1-4.03,23.71-8.87,37.84-14.53
		c2.42-1.21,3.63-2.62,3.63-4.24C1860.97,576.02,1860.16,575.42,1858.55,575.42z M1699.94,599.33c-1.62,5.45-4.45,8.17-8.48,8.17
		c-2.02,0-3.03-1.82-3.03-5.45c0-4.44,1.41-9.48,4.24-15.14c1.21-2.42,3.23-3.63,6.05-3.63c2.82,0,4.24,1.21,4.24,3.63
		C1702.56,589.75,1701.54,593.88,1699.94,599.33z M1759.87,619.61l-6.66,4.84c-0.8,0.41-1.61,0.81-2.42,1.21
		c-0.8,0.41-1.41,0.61-1.82,0.61l3.03-3.03c3.23-2.42,5.65-4.03,7.26-4.84l3.63-1.82L1759.87,619.61z"/>
</g>
</svg>
